<svg width="1362" height="829" viewBox="0 0 1362 829" fill="none" xmlns="http://www.w3.org/2000/svg">
<path fill-rule="evenodd" clip-rule="evenodd" d="M376.429 688.591C383.336 691.374 385.305 696.133 382.633 702.841L374.633 723.114C371.826 729.985 367.037 731.947 360.129 729.164L339.734 721.084C336.288 719.767 334.143 717.874 333.152 715.42C332.025 713.129 332.037 710.128 333.38 706.848L341.544 686.71C344.201 679.854 348.977 677.742 355.884 680.525L376.429 688.591ZM374.472 699.58C375.091 698.17 374.542 697.173 373.124 696.56L352.744 688.628C351.327 688.015 350.323 688.562 349.691 689.823L341.555 710.259C341.328 711.031 341.087 711.654 341.13 712.1C341.472 712.517 341.949 712.771 342.739 713.144L363.269 721.061C364.687 721.674 365.704 721.276 366.323 719.866L374.472 699.58ZM309.991 206.915C313.122 204.963 315.735 205.461 317.695 208.571L324.095 218.603C326.055 221.714 325.552 224.312 322.421 226.265L312.324 232.64C309.194 234.592 306.58 234.094 304.62 230.984L298.22 220.952C296.26 217.841 296.763 215.243 299.894 213.291L309.991 206.915ZM312.129 210.309L302.032 216.684C301.178 217.216 300.951 217.988 301.486 218.837L307.886 228.868C308.421 229.717 309.197 229.942 310.2 229.395L320.297 223.02C321.151 222.487 321.378 221.715 320.829 220.718L314.429 210.687C313.745 209.853 313.118 209.613 312.129 210.309ZM511.725 239.781C511.409 236.511 512.333 233.572 514.36 231.126C516.536 228.666 519.261 227.203 522.401 226.9C525.689 226.582 528.645 227.497 531.102 229.509C533.724 231.656 535.192 234.364 535.494 237.485C535.809 240.754 534.886 243.693 532.71 246.154C530.697 248.748 527.972 250.211 524.683 250.529C521.394 250.846 518.439 249.932 515.967 247.771C513.495 245.609 512.041 243.05 511.725 239.781ZM702.396 281.514C702.597 283.595 702.022 285.45 700.671 287.081C699.32 288.711 697.747 289.613 695.654 289.815C693.561 290.017 691.696 289.447 690.057 288.106C688.568 286.749 687.663 285.187 687.448 282.958C687.247 280.877 687.836 279.17 689.038 277.554C690.39 275.924 692.112 275.007 694.204 274.805C696.297 274.603 698.013 275.187 699.652 276.529C701.29 277.871 702.195 279.433 702.396 281.514ZM688.147 148.042L679.987 144.781C678.107 144.062 676.804 144.638 676.08 146.508L668.079 166.78C667.355 168.65 667.783 169.959 669.827 170.811L690.207 178.743C692.087 179.461 693.39 178.886 694.264 177.001L699.003 165.144L702.264 156.729C702.989 154.859 702.411 153.565 700.531 152.846L688.147 148.042ZM690.968 141.32L703.203 146.138C709.633 148.667 711.573 153.13 709.008 159.377L705.597 167.807L700.872 179.813C698.322 186.209 693.831 188.143 687.401 185.614L667.006 177.534C660.575 175.005 658.65 170.691 661.201 164.295L669.35 144.008C671.901 137.612 676.242 135.692 682.672 138.221L690.968 141.32ZM1108.51 223.091C1109.3 223.464 1109.81 224.016 1109.89 224.907L1110.93 235.607C1111.01 236.499 1110.74 236.825 1109.8 236.466L1100.02 232.011C1099.23 231.637 1098.71 230.938 1098.62 230.046L1097.59 219.346C1097.5 218.454 1097.78 218.277 1098.72 218.636L1108.51 223.091ZM1330.01 402.844C1329.69 402.576 1329.37 402.456 1329.05 402.188C1327.08 400.578 1325.85 398.747 1325.17 396.412C1324.95 395.684 1324.87 394.941 1324.8 394.197C1324.49 390.928 1325.41 387.989 1327.44 385.543C1329.61 383.083 1332.34 381.62 1335.48 381.317C1338.77 380.999 1341.72 381.914 1344.18 383.926C1346.8 386.073 1348.26 388.632 1348.57 391.902C1348.89 395.171 1347.96 398.11 1345.79 400.571C1343.77 403.165 1341.04 404.48 1337.75 404.797C1334.92 405.22 1332.28 404.425 1330.01 402.844ZM1300.7 96.23C1303.32 98.3768 1304.64 101.099 1304.94 104.22C1305.26 107.49 1304.34 110.429 1302.31 112.875C1300.3 115.469 1297.57 116.932 1294.28 117.25C1290.99 117.567 1288.04 116.653 1285.42 114.506C1282.96 112.493 1281.49 109.785 1281.18 106.516C1280.86 103.246 1281.78 100.307 1283.81 97.8615C1285.99 95.4014 1288.56 93.9526 1292 93.6205C1295.29 93.3029 1298.24 94.2174 1300.7 96.23Z" fill="#909090" fill-opacity="0.8"/>
<path fill-rule="evenodd" clip-rule="evenodd" d="M1293.73 245.561C1288.88 241.748 1288.35 237.329 1291.92 232.266L1302.64 216.949C1306.35 211.778 1310.56 211.153 1315.42 214.967L1329.79 226.113C1332.22 227.956 1333.51 230.004 1333.76 232.277C1334.15 234.442 1333.49 236.96 1331.72 239.428L1320.9 254.597C1317.31 259.788 1313.08 260.541 1308.22 256.727L1293.73 245.561ZM1297.66 236.75C1296.87 237.802 1297.09 238.756 1298.07 239.574L1312.46 250.592C1313.45 251.41 1314.36 251.165 1315.13 250.241L1326 234.816C1326.34 234.216 1326.67 233.744 1326.73 233.361C1326.55 232.938 1326.23 232.622 1325.69 232.139L1311.18 221.102C1310.19 220.284 1309.3 220.401 1308.51 221.453L1297.66 236.75ZM1241.72 664.327C1238.82 665.298 1236.86 664.321 1235.99 661.289L1233.11 651.496C1232.23 648.464 1233.19 646.389 1236.09 645.418L1245.46 642.222C1248.35 641.251 1250.31 642.228 1251.19 645.26L1254.07 655.053C1254.94 658.085 1253.98 660.16 1251.08 661.131L1241.72 664.327ZM1240.76 661.02L1250.13 657.823C1250.92 657.559 1251.27 656.959 1251.03 656.132L1248.15 646.338C1247.91 645.511 1247.34 645.157 1246.43 645.401L1237.07 648.598C1236.28 648.862 1235.93 649.462 1236.15 650.417L1239.03 660.211C1239.39 661.057 1239.83 661.392 1240.76 661.02ZM1089.4 593.604C1088.94 596.417 1087.57 598.689 1085.44 600.309C1083.19 601.911 1080.72 602.557 1078.17 602.141C1075.5 601.705 1073.36 600.305 1071.86 598.089C1070.25 595.726 1069.68 593.137 1070.12 590.451C1070.58 587.638 1071.94 585.367 1074.2 583.766C1076.35 582.017 1078.82 581.37 1081.49 581.806C1084.16 582.243 1086.3 583.642 1087.78 585.986C1089.27 588.33 1089.86 590.79 1089.4 593.604ZM947.754 517.797C948.047 516.006 948.904 514.571 950.326 513.49C951.748 512.409 953.187 511.988 954.885 512.266C956.583 512.543 957.933 513.42 958.937 514.898C959.82 516.355 960.196 517.861 959.883 519.779C959.59 521.57 958.754 522.877 957.453 523.978C956.031 525.058 954.471 525.46 952.773 525.182C951.075 524.905 949.846 524.047 948.842 522.57C947.838 521.093 947.462 519.587 947.754 517.797ZM930.052 632.947L935.795 637.43C937.125 638.436 938.279 638.23 939.258 636.815L949.98 621.498C950.959 620.082 950.904 618.891 949.474 617.738L935.087 606.721C933.757 605.715 932.602 605.921 931.502 607.316L925.184 616.263L920.78 622.633C919.801 624.049 919.977 625.26 921.307 626.265L930.052 632.947ZM926.364 637.99L917.74 631.328C913.206 627.829 912.641 623.667 916.025 618.967L920.549 612.617L926.889 603.542C930.293 598.715 934.262 598.051 938.796 601.549L953.162 612.695C957.696 616.194 958.282 620.229 954.878 625.056L944.034 640.353C940.63 645.18 936.782 645.864 932.249 642.366L926.364 637.99ZM702.003 525.027C701.459 524.544 701.179 523.973 701.304 523.206L702.809 513.998C702.935 513.231 703.219 513.015 703.884 513.517L710.651 519.35C711.195 519.833 711.454 520.532 711.329 521.299L709.824 530.507C709.698 531.275 709.435 531.363 708.77 530.86L702.003 525.027ZM794.383 586.085C794.926 586.567 795.186 587.266 795.081 587.906L793.576 597.114C793.451 597.881 793.066 597.949 792.522 597.467L785.613 591.742C785.069 591.259 784.789 590.688 784.914 589.92L786.42 580.712C786.545 579.945 786.951 579.749 787.494 580.232L794.383 586.085ZM729.5 593.73C728.956 593.248 728.676 592.677 728.802 591.909L730.307 582.701C730.432 581.934 730.716 581.718 731.381 582.22L738.149 588.054C738.692 588.536 738.952 589.235 738.847 589.875L737.342 599.083C737.217 599.85 736.953 599.938 736.288 599.436L729.5 593.73ZM571.197 403.46C570.653 402.977 570.373 402.406 570.499 401.639L572.004 392.431C572.129 391.663 572.414 391.447 573.058 392.078L579.846 397.783C580.389 398.266 580.649 398.965 580.544 399.604L579.039 408.812C578.914 409.579 578.65 409.668 577.985 409.165L571.197 403.46ZM614.09 480.063C613.546 479.58 613.266 479.009 613.391 478.242L614.896 469.034C615.022 468.266 615.306 468.05 615.971 468.553L622.738 474.386C623.282 474.869 623.541 475.568 623.416 476.335L621.911 485.543C621.785 486.31 621.522 486.399 620.857 485.896L614.09 480.063ZM478.023 281.741C478.224 282.036 478.446 282.204 478.647 282.499C479.851 284.272 480.428 286.073 480.458 288.179C480.475 288.838 480.37 289.478 480.266 290.117C479.806 292.931 478.438 295.202 476.305 296.823C474.051 298.424 471.579 299.07 469.032 298.654C466.364 298.218 464.227 296.818 462.721 294.602C461.115 292.239 460.521 289.778 460.981 286.965C461.441 284.151 462.809 281.88 465.063 280.279C467.216 278.53 469.667 278.011 472.335 278.448C474.661 278.696 476.576 279.929 478.023 281.741ZM592.573 409.055C591.741 409.575 590.887 410.224 590.055 410.744L590.432 408.442C590.557 407.675 590.841 407.459 591.506 407.961L592.573 409.055ZM666.993 599.795L666.972 599.923C666.846 600.69 666.462 600.758 665.918 600.276L664.065 598.66L659.151 594.442C658.607 593.96 658.327 593.389 658.452 592.621L659.957 583.413C660.083 582.646 660.489 582.45 661.032 582.933L667.921 588.785C668.464 589.268 668.724 589.967 668.598 590.735L667.114 599.815L666.993 599.795ZM593.782 410.04L598.152 413.775C598.696 414.257 598.955 414.956 598.83 415.724L597.325 424.932C597.199 425.699 596.936 425.787 596.271 425.285L593.209 422.683L589.483 419.579C588.939 419.096 588.659 418.525 588.784 417.758L589.579 412.898C590.98 411.946 592.381 410.993 593.782 410.04ZM434.655 545.535C433.049 543.171 432.597 540.603 433.036 537.917C433.496 535.104 434.863 532.832 436.996 531.211C439.15 529.463 441.621 528.816 444.29 529.252C446.958 529.688 449.095 531.088 450.701 533.452C452.207 535.667 452.78 538.256 452.32 541.069C451.86 543.883 450.493 546.154 448.36 547.775C446.106 549.376 443.755 550.043 440.966 549.587C438.298 549.15 436.16 547.751 434.655 545.535Z" fill="#909090" fill-opacity="0.8"/>
<path fill-rule="evenodd" clip-rule="evenodd" d="M274.987 781.458C277.596 779.417 279.869 779.717 281.86 782.239L287.895 789.832C289.92 792.442 289.611 794.723 287.002 796.765L279.351 802.823C278.077 803.857 276.87 804.262 275.703 804.098C274.57 804.022 273.416 803.349 272.45 802.102L266.503 794.477C264.451 791.927 264.7 789.618 267.309 787.577L274.987 781.458ZM278.788 784.657C278.382 784.105 277.876 784.095 277.324 784.504L269.734 790.589C269.182 790.999 269.17 791.507 269.515 792.031L275.583 799.712C275.83 799.972 276.016 800.203 276.198 800.286C276.435 800.247 276.639 800.12 276.959 799.898L284.577 793.752C285.128 793.343 285.201 792.862 284.795 792.31L278.788 784.657ZM74.5395 699.868C74.4833 698.228 75.2563 697.332 76.8914 697.269L82.1819 697.036C83.8169 696.973 84.7066 697.745 84.7628 699.385L84.9744 704.693C85.0306 706.333 84.2576 707.229 82.6226 707.292L77.3321 707.525C75.6971 707.588 74.8074 706.816 74.7512 705.176L74.5395 699.868ZM76.3232 699.799L76.5348 705.107C76.5502 705.554 76.7972 705.814 77.2431 705.797L82.5336 705.563C82.9795 705.546 83.2389 705.297 83.2513 704.789L83.0396 699.481C83.0243 699.034 82.7773 698.775 82.2709 698.764L76.9804 698.998C76.5068 699.076 76.2751 699.264 76.3232 699.799ZM132.078 629.475C130.747 628.869 129.82 627.86 129.328 626.535C128.864 625.149 128.906 623.774 129.487 622.497C130.096 621.16 131.106 620.225 132.429 619.726C133.839 619.194 135.21 619.231 136.48 619.809C137.81 620.415 138.738 621.425 139.202 622.81C139.754 624.163 139.712 625.538 139.103 626.876C138.494 628.213 137.484 629.148 136.101 629.619C134.719 630.091 133.408 630.081 132.078 629.475ZM190.574 565.318C191.421 565.703 192.008 566.338 192.336 567.221C192.664 568.104 192.662 568.911 192.274 569.762C191.887 570.613 191.252 571.205 190.371 571.537C189.517 571.809 188.713 571.81 187.806 571.397C186.959 571.011 186.432 570.404 186.077 569.582C185.749 568.699 185.779 567.831 186.166 566.98C186.554 566.129 187.161 565.598 188.042 565.266C188.924 564.933 189.727 564.932 190.574 565.318ZM135.956 541.106L132.883 543.524C132.188 544.088 132.121 544.718 132.68 545.413L138.715 553.006C139.275 553.701 139.874 553.827 140.658 553.23L148.248 547.144C148.943 546.58 149.011 545.95 148.479 545.194L144.962 540.73L142.444 537.602C141.884 536.906 141.257 536.841 140.562 537.405L135.956 541.106ZM133.992 538.524L138.57 534.884C140.976 532.969 143.127 533.215 144.965 535.593L147.456 538.783L151.033 543.274C152.931 545.68 152.677 547.84 150.272 549.754L142.622 555.812C140.216 557.726 138.125 557.508 136.227 555.102L130.22 547.449C128.322 545.043 128.547 542.944 130.952 541.03L133.992 538.524ZM223.113 435.978C223.433 435.756 223.758 435.684 224.12 435.849L228.475 437.832C228.838 437.997 228.903 438.174 228.556 438.456L224.662 441.234C224.342 441.455 223.957 441.5 223.594 441.335L219.24 439.352C218.877 439.187 218.872 439.037 219.219 438.755L223.113 435.978ZM179.19 476.311C178.87 476.532 178.484 476.577 178.182 476.439L173.828 474.456C173.465 474.291 173.487 474.081 173.807 473.86L177.668 470.994C177.988 470.772 178.313 470.7 178.676 470.865L183.03 472.848C183.393 473.013 183.431 473.251 183.111 473.472L179.19 476.311ZM184.93 441.417C185.249 441.196 185.574 441.124 185.937 441.289L190.292 443.272C190.655 443.437 190.72 443.614 190.373 443.896L186.479 446.674C186.159 446.895 185.774 446.94 185.471 446.802L181.117 444.819C180.754 444.654 180.749 444.505 181.097 444.223L184.93 441.417ZM302.754 383.431C303.074 383.209 303.399 383.137 303.762 383.302L308.116 385.285C308.479 385.45 308.545 385.627 308.137 385.882L304.304 388.687C303.984 388.908 303.598 388.953 303.296 388.815L298.942 386.832C298.579 386.667 298.574 386.518 298.921 386.236L302.754 383.431ZM258.382 395.888C258.702 395.666 259.027 395.594 259.39 395.759L263.744 397.742C264.107 397.907 264.173 398.084 263.825 398.366L259.931 401.144C259.612 401.365 259.226 401.41 258.863 401.245L254.509 399.262C254.146 399.097 254.141 398.947 254.488 398.665L258.382 395.888ZM376.938 350.565C376.762 350.632 376.646 350.726 376.47 350.792C375.412 351.191 374.432 351.259 373.381 351.001C373.051 350.924 372.749 350.786 372.446 350.648C371.116 350.042 370.188 349.033 369.696 347.708C369.232 346.322 369.274 344.947 369.856 343.67C370.465 342.333 371.475 341.398 372.797 340.899C374.208 340.367 375.518 340.376 376.848 340.982C378.179 341.588 379.106 342.598 379.57 343.983C380.123 345.336 380.02 346.684 379.411 348.021C378.946 349.204 378.052 350.045 376.938 350.565ZM296.831 393.872C296.695 393.37 296.498 392.84 296.362 392.337L297.451 392.833C297.813 392.998 297.879 393.175 297.531 393.457L296.831 393.872ZM191.106 407.97L191.046 407.943C190.683 407.778 190.705 407.568 191.025 407.346L192.101 406.588L194.919 404.569C195.239 404.347 195.564 404.275 195.927 404.44L200.281 406.423C200.644 406.588 200.682 406.826 200.362 407.047L196.441 409.886C196.121 410.107 195.735 410.152 195.372 409.987L191.079 408.031L191.106 407.97ZM296.164 394.376L293.666 396.174C293.346 396.395 292.96 396.44 292.597 396.275L288.243 394.292C287.88 394.126 287.875 393.977 288.223 393.695L289.965 392.434L292.056 390.89C292.376 390.669 292.701 390.596 293.063 390.762L295.362 391.808C295.629 392.664 295.896 393.52 296.164 394.376ZM252.229 293.629C253.639 293.097 254.982 293.194 256.252 293.773C257.583 294.379 258.51 295.388 259.002 296.713C259.555 298.066 259.513 299.441 258.903 300.779C258.294 302.116 257.285 303.051 255.874 303.583C254.552 304.082 253.181 304.045 251.851 303.439C250.52 302.833 249.592 301.823 249.101 300.498C248.636 299.113 248.651 297.798 249.288 296.4C249.897 295.062 250.906 294.128 252.229 293.629Z" fill="#909090" fill-opacity="0.8"/>
</svg>
