<svg width="707" height="1324" viewBox="0 0 707 1324" fill="none" xmlns="http://www.w3.org/2000/svg">
<path fill-rule="evenodd" clip-rule="evenodd" d="M110.796 321.59C107.357 328.195 102.429 329.694 96.0114 326.385L76.6088 316.46C70.0418 313.001 68.5522 308.044 71.9907 301.439L82.0074 281.922C83.652 278.619 85.7435 276.668 88.2822 275.919C90.6717 275.019 93.6575 275.322 96.7917 276.976L116.045 287.051C122.612 290.36 124.251 295.317 120.812 301.923L110.796 321.59ZM100.048 318.579C101.391 319.331 102.437 318.881 103.184 317.53L113.051 298.013C113.799 296.661 113.352 295.61 112.158 294.858L92.6059 284.782C91.8596 284.482 91.2626 284.181 90.8147 284.18C90.3666 284.481 90.0676 284.931 89.6192 285.681L79.7518 305.349C79.0043 306.7 79.3022 307.751 80.6454 308.503L100.048 318.579ZM596.641 302.099C598.281 305.404 597.532 307.956 594.247 309.606L583.642 315.005C580.357 316.655 577.819 315.903 576.179 312.597L570.811 301.931C569.171 298.626 569.919 296.073 573.205 294.423L583.809 289.024C587.095 287.374 589.633 288.127 591.273 291.432L596.641 302.099ZM593.056 303.898L587.688 293.232C587.241 292.33 586.495 292.029 585.599 292.479L574.995 297.879C574.098 298.329 573.799 299.079 574.246 300.131L579.614 310.798C580.061 311.699 580.808 312 581.853 311.55L592.457 306.151C593.354 305.551 593.653 304.95 593.056 303.898ZM544.398 499.703C547.683 499.706 550.519 500.909 552.757 503.163C554.995 505.568 556.187 508.422 556.185 511.576C556.183 514.88 554.987 517.733 552.745 519.984C550.355 522.385 547.517 523.585 544.382 523.582C541.097 523.58 538.261 522.377 536.024 519.972C533.636 517.718 532.444 514.864 532.446 511.56C532.448 508.256 533.645 505.403 536.035 503.152C538.425 500.901 541.114 499.701 544.398 499.703ZM484.401 685.438C482.31 685.437 480.519 684.685 479.027 683.182C477.535 681.679 476.79 680.027 476.791 677.924C476.793 675.822 477.54 674.02 479.035 672.519C480.529 671.168 482.171 670.419 484.411 670.42C486.501 670.422 488.143 671.174 489.635 672.526C491.127 674.029 491.872 675.832 491.871 677.934C491.869 680.037 491.122 681.688 489.628 683.189C488.134 684.69 486.491 685.44 484.401 685.438ZM618.625 684.179L622.661 676.372C623.558 674.571 623.111 673.219 621.32 672.316L601.918 662.391C600.127 661.489 598.783 661.788 597.736 663.74L587.869 683.257C586.972 685.058 587.419 686.41 589.21 687.463L600.553 693.328L608.612 697.388C610.403 698.29 611.747 697.841 612.644 696.039L618.625 684.179ZM625.042 687.637L619.062 699.348C615.923 705.503 611.293 707.002 605.323 703.844L597.264 699.633L585.772 693.768C579.652 690.61 578.162 685.953 581.302 679.798L591.319 660.281C594.458 654.126 598.938 652.627 605.058 655.785L624.46 665.861C630.579 669.019 632.069 673.525 628.93 679.68L625.042 687.637ZM503.23 1095.3C502.782 1096.05 502.184 1096.5 501.289 1096.5L490.539 1096.49C489.643 1096.49 489.345 1096.19 489.793 1095.29L495.174 1085.98C495.623 1085.23 496.37 1084.78 497.265 1084.78L508.015 1084.79C508.911 1084.79 509.06 1085.09 508.612 1085.99L503.23 1095.3ZM302.876 1298.36C303.175 1298.06 303.324 1297.76 303.623 1297.46C305.416 1295.66 307.358 1294.61 309.747 1294.16C310.493 1294.01 311.24 1294.01 311.986 1294.01C315.271 1294.01 318.107 1295.22 320.345 1297.47C322.583 1299.88 323.775 1302.73 323.773 1305.88C323.771 1309.19 322.575 1312.04 320.334 1314.29C317.943 1316.69 315.255 1317.89 311.97 1317.89C308.685 1317.89 305.85 1316.68 303.612 1314.28C301.224 1312.03 300.181 1309.17 300.183 1305.87C300.036 1303.01 301.083 1300.46 302.876 1298.36ZM610.888 1298.87C608.497 1301.27 605.66 1302.32 602.524 1302.32C599.24 1302.32 596.404 1301.11 594.166 1298.86C591.778 1296.61 590.586 1293.75 590.588 1290.45C590.59 1287.14 591.787 1284.29 594.177 1281.89C596.418 1279.64 599.256 1278.44 602.541 1278.44C605.825 1278.44 608.661 1279.65 610.899 1281.9C613.137 1284.31 614.33 1287.01 614.327 1290.46C614.325 1293.77 613.129 1296.62 610.888 1298.87Z" fill="#909090" fill-opacity="0.8"/>
<path fill-rule="evenodd" clip-rule="evenodd" d="M462.933 1277.48C467.199 1273.01 471.647 1272.92 476.341 1276.96L490.548 1289.12C495.336 1293.31 495.55 1297.56 491.284 1302.02L478.799 1315.24C476.729 1317.49 474.566 1318.57 472.279 1318.6C470.086 1318.78 467.644 1317.88 465.359 1315.88L451.309 1303.64C446.49 1299.56 446.151 1295.28 450.417 1290.82L462.933 1277.48ZM471.322 1282.24C470.352 1281.35 469.381 1281.47 468.471 1282.38L456.112 1295.63C455.203 1296.53 455.358 1297.46 456.203 1298.32L470.503 1310.63C471.067 1311.03 471.505 1311.4 471.881 1311.5C472.319 1311.37 472.664 1311.08 473.198 1310.58L485.588 1297.21C486.498 1296.31 486.468 1295.41 485.498 1294.52L471.322 1282.24ZM51.1702 1185.16C50.4848 1182.18 51.6462 1180.33 54.7482 1179.75L64.775 1177.83C67.877 1177.26 69.8491 1178.42 70.5346 1181.39L72.8094 1191.02C73.4948 1194 72.3334 1195.86 69.2314 1196.43L59.2046 1198.35C56.1026 1198.93 54.1305 1197.77 53.445 1194.79L51.1702 1185.16ZM54.5543 1184.53L56.829 1194.16C57.016 1194.98 57.5793 1195.38 58.4253 1195.22L68.4522 1193.3C69.2982 1193.14 69.7061 1192.62 69.5506 1191.69L67.2758 1182.06C67.0889 1181.24 66.5255 1180.84 65.5542 1180.96L55.5274 1182.89C54.6499 1183.16 54.2735 1183.57 54.5543 1184.53ZM136.308 1040.41C133.552 1039.68 131.424 1038.1 130.017 1035.82C128.642 1033.42 128.238 1030.9 128.899 1028.4C129.591 1025.79 131.191 1023.8 133.542 1022.51C136.05 1021.14 138.682 1020.82 141.313 1021.52C144.068 1022.25 146.197 1023.83 147.572 1026.23C149.104 1028.54 149.508 1031.07 148.816 1033.68C148.123 1036.29 146.523 1038.29 144.047 1039.54C141.57 1040.79 139.064 1041.14 136.308 1040.41ZM225.473 906.767C227.227 907.232 228.573 908.224 229.51 909.744C230.448 911.264 230.728 912.736 230.288 914.4C229.847 916.063 228.843 917.322 227.276 918.178C225.74 918.916 224.205 919.145 222.326 918.647C220.572 918.182 219.351 917.223 218.382 915.822C217.444 914.302 217.196 912.711 217.636 911.048C218.077 909.384 219.049 908.244 220.617 907.388C222.184 906.531 223.719 906.303 225.473 906.767ZM112.578 878L107.559 883.281C106.43 884.508 106.522 885.677 107.837 886.788L122.044 898.943C123.358 900.054 124.548 900.115 125.834 898.803L138.193 885.55C139.323 884.323 139.23 883.154 137.947 881.925L129.655 874.769L123.74 869.77C122.426 868.659 121.204 868.716 120.075 869.943L112.578 878ZM107.915 873.841L115.381 865.902C119.302 861.728 123.5 861.569 127.85 865.392L133.732 870.51L142.15 877.699C146.625 881.554 146.902 885.569 142.981 889.742L130.497 902.962C126.576 907.136 122.503 907.328 118.028 903.473L103.853 891.199C99.3778 887.343 99.0694 883.448 102.99 879.274L107.915 873.841ZM242.07 661.47C242.603 660.976 243.198 660.752 243.95 660.951L252.969 663.341C253.72 663.54 253.908 663.844 253.343 664.457L246.882 670.628C246.349 671.122 245.628 671.312 244.877 671.113L235.858 668.724C235.106 668.525 235.044 668.254 235.609 667.641L242.07 661.47ZM172.355 747.505C171.822 747.999 171.101 748.19 170.475 748.024L161.456 745.634C160.704 745.435 160.673 745.045 161.206 744.551L167.574 738.228C168.107 737.734 168.702 737.51 169.454 737.71L178.473 740.099C179.224 740.298 179.381 740.721 178.847 741.215L172.355 747.505ZM171.027 682.187C171.56 681.692 172.156 681.469 172.907 681.668L181.926 684.057C182.678 684.256 182.865 684.56 182.301 685.174L175.84 691.344C175.307 691.839 174.586 692.029 173.96 691.863L164.941 689.474C164.189 689.274 164.127 689.004 164.691 688.39L171.027 682.187ZM375.73 543.049C376.263 542.555 376.859 542.331 377.61 542.53L386.629 544.92C387.381 545.119 387.569 545.423 386.879 546.003L380.543 552.207C380.01 552.701 379.289 552.891 378.663 552.725L369.644 550.336C368.892 550.137 368.83 549.866 369.394 549.253L375.73 543.049ZM295.334 578.324C295.867 577.829 296.463 577.606 297.214 577.805L306.233 580.194C306.985 580.393 307.173 580.697 306.608 581.311L300.147 587.481C299.614 587.976 298.893 588.166 298.141 587.967L289.122 585.577C288.371 585.378 288.309 585.107 288.873 584.494L295.334 578.324ZM505.898 462.098C505.585 462.269 505.396 462.473 505.083 462.644C503.202 463.672 501.353 464.072 499.255 463.897C498.597 463.85 497.971 463.684 497.344 463.518C494.588 462.788 492.46 461.207 491.053 458.927C489.678 456.529 489.274 454.006 489.935 451.511C490.627 448.898 492.227 446.906 494.579 445.622C497.086 444.252 499.593 443.899 502.349 444.63C505.105 445.36 507.233 446.941 508.608 449.339C510.14 451.652 510.419 454.142 509.727 456.755C509.254 459.045 507.842 460.833 505.898 462.098ZM368.092 563.783C367.654 562.904 367.092 561.992 366.654 561.113L368.909 561.711C369.661 561.91 369.848 562.214 369.284 562.827L368.092 563.783ZM171.043 619.386L170.918 619.353C170.166 619.154 170.135 618.764 170.668 618.27L172.456 616.582L177.129 612.099C177.662 611.605 178.258 611.381 179.009 611.58L188.028 613.97C188.78 614.169 188.936 614.592 188.403 615.086L181.911 621.375C181.377 621.87 180.657 622.06 179.905 621.861L171.011 619.505L171.043 619.386ZM366.994 564.89L362.854 568.879C362.321 569.373 361.6 569.564 360.849 569.364L351.83 566.975C351.078 566.776 351.016 566.505 351.58 565.892L354.466 563.097L357.916 559.688C358.449 559.194 359.045 558.97 359.796 559.169L364.556 560.43C365.369 561.917 366.182 563.404 366.994 564.89ZM247.542 393.393C250.05 392.023 252.65 391.822 255.281 392.519C258.037 393.249 260.165 394.83 261.572 397.11C263.104 399.423 263.508 401.945 262.815 404.559C262.123 407.172 260.523 409.164 258.015 410.534C255.664 411.818 253.032 412.138 250.276 411.407C247.521 410.677 245.392 409.096 243.986 406.816C242.61 404.418 242.175 402.014 242.899 399.282C243.591 396.668 245.191 394.677 247.542 393.393Z" fill="#909090" fill-opacity="0.8"/>
<path fill-rule="evenodd" clip-rule="evenodd" d="M28.1861 211.634C29.9654 214.428 29.4459 216.661 26.7432 218.399L18.6021 223.67C15.8083 225.432 13.5674 224.904 11.7881 222.11L6.49934 213.908C5.59306 212.54 5.30701 211.3 5.5834 210.155C5.76868 209.034 6.54966 207.95 7.88434 207.11L16.0501 201.929C18.786 200.134 21.0602 200.604 22.8395 203.399L28.1861 211.634ZM24.6344 215.107C25.2229 214.756 25.2823 214.253 24.9282 213.665L19.6062 205.521C19.252 204.932 18.7474 204.871 18.1922 205.164L9.95992 210.459C9.67794 210.68 9.42922 210.843 9.32943 211.016C9.34528 211.255 9.45223 211.471 9.64157 211.81L15.0214 219.988C15.3755 220.576 15.8469 220.695 16.4354 220.345L24.6344 215.107ZM128.8 20.027C130.438 20.1299 131.255 20.986 131.159 22.6194L130.879 27.9077C130.783 29.5411 129.928 30.3519 128.29 30.249L122.987 29.9457C121.349 29.8429 120.532 28.9868 120.628 27.3533L120.908 22.0651C121.004 20.4317 121.858 19.6209 123.496 19.7238L128.8 20.027ZM128.695 21.8089L123.392 21.5057C122.945 21.4777 122.663 21.6984 122.637 22.1439L122.357 27.4321C122.331 27.8776 122.554 28.1599 123.058 28.2214L128.361 28.5246C128.808 28.5526 129.09 28.3319 129.15 27.8289L129.43 22.5406C129.398 22.0617 129.233 21.8129 128.695 21.8089ZM193.291 84.1104C194.023 82.8448 195.117 82.0193 196.484 81.658C197.908 81.3301 199.273 81.5053 200.487 82.2075C201.759 82.9432 202.592 84.0387 202.96 85.4032C203.353 86.8587 203.184 88.2192 202.485 89.4273C201.754 90.6929 200.659 91.5184 199.235 91.8462C197.835 92.2651 196.47 92.0899 195.198 91.3543C193.926 90.6186 193.093 89.523 192.758 88.101C192.423 86.679 192.559 85.376 193.291 84.1104ZM251.484 148.543C251.018 149.349 250.33 149.872 249.419 150.113C248.508 150.354 247.705 150.273 246.896 149.805C246.086 149.337 245.559 148.648 245.313 147.739C245.125 146.862 245.202 146.062 245.701 145.199C246.167 144.394 246.822 143.929 247.675 143.654C248.586 143.413 249.446 143.527 250.256 143.995C251.065 144.463 251.535 145.119 251.781 146.028C252.026 146.938 251.95 147.738 251.484 148.543ZM280.869 96.5258L278.76 93.2337C278.266 92.4872 277.646 92.3589 276.9 92.8486L268.759 98.12C268.012 98.6097 267.829 99.1943 268.348 100.032L273.67 108.176C274.164 108.922 274.784 109.05 275.588 108.594L280.372 105.526L283.729 103.323C284.475 102.833 284.601 102.215 284.107 101.469L280.869 96.5258ZM283.63 94.8212L286.81 99.7306C288.482 102.31 288.029 104.427 285.484 106.026L282.069 108.196L277.252 111.322C274.674 112.978 272.548 112.517 270.876 109.938L265.587 101.736C263.915 99.1572 264.334 97.097 266.913 95.4406L275.112 90.2026C277.69 88.5462 279.757 88.9741 281.43 91.5532L283.63 94.8212ZM377.066 193.452C377.255 193.791 377.296 194.122 377.096 194.467L374.701 198.609C374.501 198.954 374.319 199.002 374.072 198.629L371.684 194.485C371.495 194.145 371.488 193.757 371.687 193.412L374.082 189.27C374.282 188.925 374.431 188.934 374.678 189.307L377.066 193.452ZM341.175 145.83C340.985 145.49 340.978 145.102 341.145 144.814L343.54 140.672C343.739 140.327 343.946 140.37 344.135 140.71L346.614 144.83C346.804 145.17 346.844 145.5 346.644 145.845L344.249 149.987C344.05 150.332 343.81 150.347 343.62 150.007L341.175 145.83ZM375.348 154.921C375.538 155.261 375.578 155.591 375.379 155.937L372.983 160.078C372.784 160.424 372.602 160.472 372.355 160.099L369.967 155.954C369.777 155.615 369.77 155.227 369.937 154.939L372.332 150.797C372.531 150.452 372.68 150.461 372.927 150.834L375.348 154.921ZM421.655 277.806C421.845 278.146 421.885 278.477 421.685 278.822L419.29 282.964C419.091 283.309 418.908 283.357 418.695 282.926L416.274 278.84C416.084 278.5 416.077 278.112 416.243 277.824L418.639 273.682C418.838 273.337 418.987 273.347 419.234 273.72L421.655 277.806ZM413.553 232.437C413.742 232.776 413.783 233.107 413.583 233.452L411.188 237.594C410.988 237.939 410.806 237.987 410.559 237.614L408.171 233.47C407.982 233.13 407.975 232.742 408.174 232.397L410.569 228.255C410.769 227.91 410.918 227.919 411.165 228.292L413.553 232.437ZM447.184 354.824C447.135 354.642 447.052 354.518 447.003 354.336C446.709 353.244 446.736 352.262 447.095 351.241C447.203 350.92 447.37 350.633 447.536 350.345C448.268 349.079 449.363 348.254 450.729 347.893C452.153 347.565 453.518 347.74 454.733 348.442C456.005 349.178 456.837 350.273 457.206 351.638C457.599 353.093 457.463 354.396 456.731 355.662C455.999 356.927 454.904 357.753 453.48 358.081C452.08 358.5 450.749 358.267 449.477 357.531C448.345 356.954 447.594 355.982 447.184 354.824ZM411.836 270.9C412.35 270.813 412.896 270.669 413.409 270.582L412.811 271.617C412.611 271.962 412.429 272.011 412.182 271.637L411.836 270.9ZM408.04 164.307L408.073 164.249C408.273 163.904 408.48 163.947 408.669 164.287L409.32 165.431L411.057 168.431C411.246 168.771 411.287 169.101 411.087 169.446L408.692 173.588C408.492 173.934 408.252 173.948 408.063 173.608L405.617 169.431C405.428 169.091 405.421 168.703 405.62 168.358L407.982 164.274L408.04 164.307ZM411.4 270.187L409.852 267.527C409.663 267.187 409.655 266.799 409.855 266.454L412.25 262.312C412.45 261.967 412.599 261.976 412.846 262.349L413.933 264.206L415.267 266.436C415.456 266.776 415.497 267.106 415.297 267.451L414.033 269.637C413.155 269.821 412.278 270.004 411.4 270.187ZM515.927 236.213C516.32 237.668 516.093 238.995 515.394 240.203C514.662 241.469 513.568 242.294 512.201 242.656C510.802 243.075 509.437 242.899 508.164 242.164C506.892 241.428 506.06 240.333 505.667 238.877C505.298 237.513 505.468 236.152 506.2 234.886C506.931 233.621 508.026 232.795 509.392 232.434C510.817 232.106 512.124 232.248 513.454 233.017C514.726 233.753 515.559 234.848 515.927 236.213Z" fill="#909090" fill-opacity="0.8"/>
</svg>
