<svg width="1308" height="710" viewBox="0 0 1308 710" fill="none" xmlns="http://www.w3.org/2000/svg">
<path fill-rule="evenodd" clip-rule="evenodd" d="M986.577 113.573C979.983 110.112 978.501 105.179 981.831 98.7725L991.822 79.4036C995.303 72.8484 1000.27 71.3755 1006.86 74.8364L1026.34 84.919C1029.64 86.5748 1031.58 88.6729 1032.32 91.2141C1033.22 93.6066 1032.9 96.5914 1031.24 99.72L1021.1 118.939C1017.77 125.495 1012.8 127.117 1006.21 123.656L986.577 113.573ZM989.624 102.835C988.868 104.176 989.314 105.223 990.663 105.975L1010.15 115.908C1011.5 116.66 1012.55 116.217 1013.3 115.025L1023.45 95.5078C1023.75 94.7625 1024.05 94.1665 1024.05 93.7186C1023.76 93.2695 1023.31 92.969 1022.56 92.518L1002.92 82.5841C1001.57 81.8321 1000.52 82.1265 999.766 83.4671L989.624 102.835ZM1004.42 599.481C1001.11 601.11 998.564 600.353 996.925 597.062L991.562 586.439C989.923 583.148 990.684 580.613 993.995 578.984L1004.68 573.652C1007.99 572.023 1010.54 572.78 1012.18 576.072L1017.54 586.694C1019.18 589.986 1018.42 592.521 1015.11 594.149L1004.42 599.481ZM1002.64 595.89L1013.32 590.559C1014.22 590.115 1014.53 589.369 1014.08 588.472L1008.72 577.849C1008.27 576.952 1007.52 576.65 1006.47 577.094L995.783 582.425C994.88 582.869 994.577 583.615 995.023 584.662L1000.39 595.284C1000.98 596.182 1001.58 596.483 1002.64 595.89ZM806.998 546.571C806.984 549.855 805.771 552.687 803.509 554.917C801.097 557.147 798.239 558.33 795.085 558.317C791.781 558.304 788.933 557.098 786.689 554.849C784.296 552.45 783.106 549.609 783.119 546.473C783.132 543.189 784.345 540.357 786.757 538.127C789.02 535.748 791.878 534.565 795.182 534.578C798.486 534.592 801.335 535.798 803.578 538.196C805.821 540.594 807.011 543.286 806.998 546.571ZM621.467 485.945C621.475 483.855 622.233 482.066 623.741 480.579C625.249 479.092 626.904 478.353 629.007 478.361C631.109 478.37 632.908 479.123 634.404 480.623C635.75 482.121 636.494 483.766 636.485 486.006C636.476 488.096 635.719 489.735 634.361 491.223C632.853 492.71 631.048 493.449 628.945 493.441C626.843 493.432 625.194 492.679 623.698 491.18C622.202 489.68 621.458 488.035 621.467 485.945ZM622.272 620.173L630.065 624.235C631.864 625.139 633.217 624.696 634.126 622.908L644.117 603.539C645.025 601.751 644.73 600.406 642.782 599.353L623.298 589.42C621.5 588.517 620.146 588.959 619.088 590.747L613.185 602.07L609.097 610.116C608.189 611.904 608.634 613.249 610.432 614.152L622.272 620.173ZM618.792 626.578L607.102 620.559C600.957 617.398 599.474 612.764 602.653 606.805L606.89 598.759L612.794 587.287C615.973 581.179 620.635 579.704 626.779 582.865L646.262 592.947C652.407 596.108 653.891 600.593 650.712 606.702L640.571 626.07C637.392 632.178 632.88 633.653 626.736 630.493L618.792 626.578ZM211.543 503.388C210.794 502.937 210.346 502.338 210.35 501.442L210.394 490.693C210.397 489.797 210.699 489.499 211.598 489.951L220.888 495.364C221.637 495.815 222.084 496.563 222.08 497.459L222.037 508.209C222.033 509.104 221.732 509.252 220.833 508.801L211.543 503.388ZM9.16233 302.348C9.46148 302.648 9.7612 302.798 10.0604 303.098C11.8552 304.897 12.8986 306.842 13.3394 309.233C13.4866 309.98 13.4836 310.727 13.4806 311.473C13.4672 314.758 12.2542 317.59 9.99232 319.82C7.58031 322.05 4.72208 323.233 1.56826 323.22C-1.73573 323.206 -4.58436 322 -6.82797 319.752C-9.22116 317.353 -10.4117 314.661 -10.3983 311.376C-10.3849 308.091 -9.17196 305.26 -6.75994 303.03C-4.4975 300.65 -1.63976 299.617 1.66423 299.63C4.51829 299.492 7.06708 300.548 9.16233 302.348ZM7.60891 610.356C5.21572 607.957 4.17597 605.116 4.18873 601.981C4.20209 598.696 5.4151 595.865 7.67694 593.634C9.93938 591.255 12.7977 590.072 16.1017 590.085C19.4057 590.099 22.2543 591.305 24.6474 593.703C26.8911 595.952 28.081 598.794 28.0676 602.078C28.0543 605.363 26.8412 608.195 24.5794 610.425C22.1674 612.655 19.4593 613.838 16.0051 613.824C12.7012 613.811 9.85252 612.605 7.60891 610.356Z" fill="#909090" fill-opacity="0.8"/>
<path fill-rule="evenodd" clip-rule="evenodd" d="M29.5043 462.474C33.9535 466.755 34.0312 471.204 29.9747 475.884L17.7717 490.05C13.5629 494.823 9.31007 495.023 4.86081 490.742L-8.3168 478.213C-10.5582 476.135 -11.6306 473.969 -11.6527 471.682C-11.827 469.488 -10.9174 467.049 -8.90597 464.771L3.38213 450.762C7.47221 445.957 11.7587 445.632 16.208 449.913L29.5043 462.474ZM24.7104 470.848C25.6064 469.881 25.4856 468.909 24.5854 467.996L11.3742 455.592C10.4741 454.68 9.5424 454.832 8.68006 455.674L-3.67527 469.933C-4.0807 470.495 -4.45252 470.932 -4.55336 471.307C-4.41681 471.746 -4.12798 472.092 -3.63537 472.627L9.69456 485.063C10.5947 485.976 11.4927 485.948 12.3887 484.981L24.7104 470.848ZM123.21 51.0265C126.191 50.3512 128.041 51.5188 128.607 54.6228L130.493 64.656C131.059 67.76 129.894 69.7281 126.914 70.4035L117.277 72.6457C114.296 73.3211 112.446 72.1534 111.88 69.0495L109.994 59.0162C109.427 55.9123 110.592 53.9441 113.573 53.2687L123.21 51.0265ZM123.828 54.4127L114.191 56.6548C113.378 56.839 112.972 57.401 113.127 58.2476L115.013 68.2808C115.168 69.1274 115.694 69.537 116.625 69.3847L126.262 67.1425C127.075 66.9583 127.481 66.3963 127.36 65.4247L125.474 55.3914C125.201 54.513 124.793 54.1352 123.828 54.4127ZM267.675 136.654C268.414 133.9 270.002 131.777 272.287 130.378C274.69 129.011 277.214 128.615 279.706 129.285C282.318 129.986 284.304 131.593 285.58 133.948C286.941 136.461 287.252 139.094 286.546 141.722C285.807 144.475 284.219 146.598 281.815 147.965C279.497 149.49 276.973 149.885 274.362 149.184C271.751 148.483 269.765 146.876 268.522 144.395C267.28 141.915 266.935 139.407 267.675 136.654ZM401.015 226.27C400.544 228.022 399.548 229.365 398.025 230.297C396.502 231.23 395.028 231.505 393.366 231.059C391.705 230.613 390.448 229.604 389.598 228.034C388.866 226.496 388.642 224.96 389.146 223.083C389.617 221.33 390.58 220.113 391.984 219.149C393.507 218.216 395.099 217.973 396.761 218.419C398.423 218.865 399.56 219.841 400.411 221.412C401.262 222.982 401.486 224.518 401.015 226.27ZM430.164 113.473L424.9 108.436C423.677 107.303 422.508 107.391 421.392 108.702L409.189 122.868C408.074 124.178 408.009 125.368 409.316 126.659L422.528 139.063C423.75 140.196 424.919 140.108 426.153 138.829L433.337 130.561L438.357 124.663C439.472 123.353 439.418 122.131 438.196 120.997L430.164 113.473ZM434.339 108.825L442.252 116.317C446.413 120.252 446.558 124.45 442.721 128.787L437.582 134.653L430.365 143.046C426.495 147.508 422.479 147.771 418.319 143.836L405.141 131.307C400.981 127.372 400.802 123.299 404.673 118.837L416.995 104.703C420.865 100.241 424.762 99.9461 428.922 103.881L434.339 108.825ZM646.255 243.696C646.747 244.231 646.969 244.827 646.767 245.578L644.347 254.589C644.145 255.34 643.841 255.527 643.23 254.96L637.081 248.478C636.588 247.943 636.4 247.222 636.602 246.471L639.022 237.46C639.224 236.709 639.495 236.648 640.106 237.214L646.255 243.696ZM560.456 173.691C559.964 173.156 559.776 172.435 559.944 171.809L562.364 162.798C562.565 162.047 562.955 162.018 563.448 162.553L569.749 168.941C570.241 169.476 570.463 170.072 570.261 170.823L567.841 179.834C567.639 180.585 567.216 180.74 566.724 180.205L560.456 173.691ZM625.778 172.584C626.271 173.119 626.493 173.715 626.291 174.466L623.871 183.477C623.669 184.228 623.365 184.414 622.753 183.848L616.605 177.366C616.112 176.831 615.924 176.11 616.092 175.484L618.512 166.473C618.714 165.722 618.985 165.661 619.596 166.227L625.778 172.584ZM764.223 377.757C764.715 378.292 764.937 378.888 764.735 379.639L762.315 388.65C762.114 389.4 761.809 389.587 761.231 388.895L755.049 382.539C754.556 382.004 754.368 381.282 754.537 380.657L756.957 371.646C757.158 370.895 757.429 370.833 758.041 371.4L764.223 377.757ZM729.22 297.242C729.713 297.777 729.935 298.373 729.733 299.124L727.313 308.135C727.111 308.886 726.807 309.072 726.195 308.505L720.047 302.024C719.554 301.489 719.366 300.767 719.568 300.017L721.988 291.006C722.189 290.255 722.46 290.193 723.072 290.76L729.22 297.242ZM844.733 508.198C844.563 507.884 844.36 507.695 844.189 507.381C843.169 505.496 842.775 503.646 842.956 501.548C843.006 500.891 843.174 500.265 843.342 499.639C844.081 496.886 845.669 494.763 847.954 493.364C850.357 491.997 852.881 491.601 855.374 492.27C857.985 492.972 859.971 494.579 861.247 496.934C862.608 499.446 862.953 501.954 862.213 504.707C861.474 507.461 859.886 509.584 857.483 510.951C855.164 512.475 852.674 512.746 850.063 512.044C847.774 511.564 845.992 510.146 844.733 508.198ZM743.515 370.048C744.395 369.614 745.309 369.054 746.189 368.62L745.584 370.872C745.383 371.623 745.078 371.81 744.467 371.243L743.515 370.048ZM688.579 172.812L688.612 172.687C688.814 171.936 689.204 171.907 689.696 172.442L691.378 174.235L695.845 178.923C696.338 179.458 696.559 180.054 696.358 180.805L693.938 189.816C693.736 190.567 693.313 190.722 692.82 190.187L686.553 183.673C686.06 183.138 685.872 182.417 686.074 181.666L688.46 172.78L688.579 172.812ZM742.411 368.947L738.437 364.793C737.944 364.259 737.756 363.537 737.958 362.786L740.378 353.775C740.58 353.024 740.851 352.963 741.462 353.53L744.247 356.425L747.644 359.886C748.137 360.421 748.358 361.017 748.157 361.768L746.88 366.524C745.39 367.332 743.901 368.139 742.411 368.947ZM914.312 250.076C915.673 252.588 915.865 255.189 915.16 257.817C914.42 260.571 912.832 262.694 910.548 264.093C908.229 265.617 905.705 266.012 903.094 265.311C900.483 264.61 898.497 263.003 897.136 260.491C895.86 258.135 895.549 255.502 896.288 252.749C897.027 249.996 898.616 247.873 900.9 246.474C903.303 245.106 905.709 244.679 908.439 245.412C911.05 246.113 913.036 247.72 914.312 250.076Z" fill="#909090" fill-opacity="0.8"/>
<path fill-rule="evenodd" clip-rule="evenodd" d="M1096.81 31.3357C1094.01 33.1055 1091.78 32.5785 1090.05 29.87L1084.81 21.711C1083.06 18.9113 1083.59 16.6722 1086.39 14.9023L1094.61 9.64136C1095.98 8.73972 1097.22 8.45787 1098.37 8.73813C1099.49 8.92721 1100.57 9.71184 1101.4 11.0494L1106.56 19.2326C1108.34 21.9745 1107.87 24.2471 1105.06 26.017L1096.81 31.3357ZM1093.35 27.7723C1093.7 28.362 1094.2 28.423 1094.79 28.0709L1102.95 22.7765C1103.54 22.4244 1103.61 21.92 1103.32 21.3637L1098.05 13.1136C1097.83 12.8309 1097.67 12.5816 1097.49 12.4812C1097.25 12.4963 1097.04 12.6025 1096.7 12.7907L1088.5 18.1428C1087.91 18.495 1087.79 18.9659 1088.14 19.5556L1093.35 27.7723ZM1288.08 132.597C1287.97 134.235 1287.11 135.049 1285.48 134.947L1280.19 134.649C1278.56 134.548 1277.75 133.691 1277.86 132.053L1278.18 126.751C1278.29 125.113 1279.15 124.299 1280.78 124.4L1286.07 124.698C1287.7 124.8 1288.51 125.657 1288.4 127.295L1288.08 132.597ZM1286.3 132.486L1286.62 127.184C1286.65 126.738 1286.43 126.455 1285.98 126.427L1280.69 126.129C1280.25 126.102 1279.97 126.323 1279.9 126.828L1279.58 132.13C1279.55 132.577 1279.77 132.859 1280.27 132.92L1285.56 133.218C1286.04 133.188 1286.29 133.024 1286.3 132.486ZM1223.78 196.871C1225.04 197.607 1225.86 198.704 1226.22 200.072C1226.54 201.497 1226.36 202.862 1225.65 204.074C1224.91 205.343 1223.82 206.172 1222.45 206.536C1220.99 206.924 1219.63 206.75 1218.43 206.047C1217.16 205.311 1216.34 204.214 1216.02 202.789C1215.61 201.387 1215.79 200.023 1216.53 198.754C1217.27 197.484 1218.36 196.655 1219.79 196.325C1221.21 195.994 1222.51 196.135 1223.78 196.871ZM1159.15 254.846C1158.34 254.377 1157.82 253.687 1157.58 252.775C1157.35 251.864 1157.43 251.061 1157.9 250.253C1158.37 249.445 1159.06 248.92 1159.97 248.678C1160.85 248.493 1161.65 248.572 1162.51 249.074C1163.31 249.543 1163.78 250.199 1164.05 251.053C1164.29 251.965 1164.17 252.825 1163.7 253.633C1163.23 254.441 1162.57 254.908 1161.66 255.151C1160.75 255.393 1159.95 255.314 1159.15 254.846ZM1211.06 284.407L1214.36 282.309C1215.11 281.817 1215.24 281.198 1214.76 280.45L1209.51 272.291C1209.02 271.543 1208.44 271.357 1207.6 271.873L1199.44 277.168C1198.69 277.66 1198.56 278.279 1199.01 279.085L1202.07 283.879L1204.26 287.244C1204.74 287.992 1205.36 288.12 1206.11 287.628L1211.06 284.407ZM1212.76 287.173L1207.84 290.336C1205.25 292 1203.14 291.54 1201.55 288.989L1199.39 285.567L1196.28 280.739C1194.63 278.155 1195.1 276.032 1197.69 274.368L1205.91 269.107C1208.49 267.444 1210.55 267.87 1212.2 270.454L1217.41 278.671C1219.05 281.255 1218.62 283.321 1216.04 284.984L1212.76 287.173ZM1113.81 380.275C1113.47 380.463 1113.14 380.502 1112.8 380.302L1108.66 377.893C1108.32 377.692 1108.27 377.509 1108.65 377.264L1112.8 374.89C1113.14 374.702 1113.53 374.696 1113.87 374.897L1118.01 377.306C1118.35 377.506 1118.34 377.655 1117.97 377.901L1113.81 380.275ZM1161.56 344.545C1161.9 344.357 1162.29 344.351 1162.57 344.518L1166.71 346.928C1167.05 347.128 1167.01 347.335 1166.67 347.523L1162.54 349.988C1162.2 350.176 1161.87 350.215 1161.52 350.015L1157.39 347.606C1157.04 347.405 1157.03 347.165 1157.37 346.977L1161.56 344.545ZM1152.35 378.688C1152.01 378.876 1151.68 378.915 1151.33 378.715L1147.2 376.306C1146.86 376.105 1146.81 375.922 1147.18 375.677L1151.33 373.303C1151.68 373.115 1152.06 373.109 1152.35 373.276L1156.48 375.685C1156.83 375.886 1156.82 376.035 1156.44 376.281L1152.35 378.688ZM1029.31 424.579C1028.97 424.767 1028.64 424.806 1028.29 424.605L1024.16 422.196C1023.81 421.996 1023.77 421.813 1024.2 421.601L1028.29 419.194C1028.63 419.005 1029.02 419 1029.31 419.167L1033.44 421.576C1033.79 421.777 1033.78 421.926 1033.4 422.172L1029.31 424.579ZM1074.71 416.63C1074.37 416.818 1074.03 416.857 1073.69 416.657L1069.56 414.247C1069.21 414.047 1069.16 413.864 1069.54 413.618L1073.69 411.245C1074.03 411.057 1074.42 411.051 1074.76 411.252L1078.9 413.661C1079.24 413.861 1079.23 414.01 1078.86 414.256L1074.71 416.63ZM952.205 449.847C952.387 449.798 952.512 449.716 952.694 449.668C953.787 449.377 954.768 449.408 955.788 449.77C956.109 449.88 956.396 450.047 956.683 450.214C957.946 450.95 958.768 452.048 959.124 453.415C959.447 454.841 959.268 456.205 958.561 457.417C957.821 458.687 956.723 459.515 955.357 459.879C953.901 460.267 952.598 460.127 951.335 459.391C950.072 458.655 949.25 457.557 948.927 456.132C948.513 454.731 948.75 453.4 949.49 452.13C950.072 451 951.045 450.253 952.205 449.847ZM1036.25 414.783C1036.33 415.297 1036.48 415.844 1036.56 416.357L1035.53 415.755C1035.18 415.554 1035.14 415.372 1035.51 415.126L1036.25 414.783ZM1142.85 411.348L1142.91 411.381C1143.26 411.582 1143.21 411.789 1142.87 411.977L1141.73 412.623L1138.72 414.35C1138.38 414.539 1138.05 414.578 1137.7 414.377L1133.57 411.968C1133.23 411.767 1133.21 411.527 1133.55 411.339L1137.74 408.908C1138.08 408.719 1138.47 408.714 1138.81 408.914L1142.89 411.29L1142.85 411.348ZM1036.96 414.349L1039.63 412.81C1039.97 412.622 1040.36 412.616 1040.7 412.817L1044.83 415.226C1045.18 415.427 1045.17 415.576 1044.8 415.822L1042.94 416.902L1040.7 418.229C1040.36 418.417 1040.03 418.456 1039.69 418.256L1037.5 416.984C1037.32 416.106 1037.14 415.227 1036.96 414.349ZM1070.58 518.991C1069.13 519.379 1067.8 519.147 1066.59 518.444C1065.33 517.708 1064.51 516.611 1064.15 515.243C1063.74 513.842 1063.92 512.478 1064.66 511.208C1065.4 509.938 1066.5 509.109 1067.95 508.721C1069.32 508.358 1070.68 508.532 1071.94 509.268C1073.21 510.004 1074.03 511.101 1074.38 512.469C1074.71 513.894 1074.56 515.201 1073.79 516.528C1073.05 517.798 1071.95 518.627 1070.58 518.991Z" fill="#909090" fill-opacity="0.8"/>
</svg>
